# xmcd
#
# Track frame offsets:
# 150
# 22726
# 37426
# 52739
# 74447
# 90715
# 111311
# 125559
# 140169
# 167092
#
# Disc length: 2421 seconds
#
#
# Revision: 2
# Processed by: cddbd v1.5.1PL2 Copyright (c) Steve Scherf et al.
# Submitted via: FreeRIP 2.942 
#
DISCID=8f09730a
DTITLE=Robert Køes»an and Druhá tráva - Druhá tráva
DYEAR=1900
DGENRE=
TTITLE0=Zá¹»
TTITLE1=©panìlský nebe
TTITLE2=Je¹tì jedno kafe (One More Cup Of Coffee)
TTITLE3=Vra» se
TTITLE4=Záti¹í s buvoly
TTITLE5=Smuteèní mar¹e
TTITLE6=Praha bolestivosti
TTITLE7=V nevysokých horách
TTITLE8=Ne¾ zazvoní hrana
TTITLE9=Letní romance
EXTD=
EXTT0=
EXTT1=
EXTT2=
EXTT3=
EXTT4=
EXTT5=
EXTT6=
EXTT7=
EXTT8=
EXTT9=
PLAYORDER=
